<svg width="24" height="24" viewBox="0 0 24 24" fill="none" xmlns="http://www.w3.org/2000/svg">
<path fill-rule="evenodd" clip-rule="evenodd" d="M2.25 19.5008C2.25 20.0975 2.48705 20.6698 2.90901 21.0918C3.33097 21.5137 3.90326 21.7508 4.5 21.7508H16.5C17.0967 21.7508 17.669 21.5137 18.091 21.0918C18.5129 20.6698 18.75 20.0975 18.75 19.5008V13.5008C18.75 13.3018 18.671 13.1111 18.5303 12.9704C18.3897 12.8298 18.1989 12.7508 18 12.7508C17.8011 12.7508 17.6103 12.8298 17.4697 12.9704C17.329 13.1111 17.25 13.3018 17.25 13.5008V19.5008C17.25 19.6997 17.171 19.8904 17.0303 20.0311C16.8897 20.1717 16.6989 20.2508 16.5 20.2508H4.5C4.30109 20.2508 4.11032 20.1717 3.96967 20.0311C3.82902 19.8904 3.75 19.6997 3.75 19.5008V7.50076C3.75 7.30185 3.82902 7.11108 3.96967 6.97043C4.11032 6.82978 4.30109 6.75076 4.5 6.75076H10.5C10.6989 6.75076 10.8897 6.67174 11.0303 6.53109C11.171 6.39044 11.25 6.19968 11.25 6.00076C11.25 5.80185 11.171 5.61108 11.0303 5.47043C10.8897 5.32978 10.6989 5.25076 10.5 5.25076H4.5C3.90326 5.25076 3.33097 5.48782 2.90901 5.90977C2.48705 6.33173 2.25 6.90403 2.25 7.50076V19.5008ZM12.75 3.00076C12.75 2.80185 12.829 2.61109 12.9697 2.47043C13.1103 2.32978 13.3011 2.25076 13.5 2.25076H21C21.1989 2.25076 21.3897 2.32978 21.5303 2.47043C21.671 2.61109 21.75 2.80185 21.75 3.00076V10.5008C21.75 10.6997 21.671 10.8904 21.5303 11.0311C21.3897 11.1717 21.1989 11.2508 21 11.2508C20.8011 11.2508 20.6103 11.1717 20.4697 11.0311C20.329 10.8904 20.25 10.6997 20.25 10.5008V3.75076H13.5C13.3011 3.75076 13.1103 3.67175 12.9697 3.53109C12.829 3.39044 12.75 3.19968 12.75 3.00076Z" fill="white"/>
<path fill-rule="evenodd" clip-rule="evenodd" d="M21.531 2.46903C21.6008 2.5387 21.6562 2.62146 21.6941 2.71258C21.7319 2.8037 21.7513 2.90138 21.7513 3.00003C21.7513 3.09868 21.7319 3.19636 21.6941 3.28748C21.6562 3.3786 21.6008 3.46136 21.531 3.53103L9.53099 15.531C9.46125 15.6008 9.37847 15.6561 9.28736 15.6938C9.19625 15.7316 9.0986 15.751 8.99999 15.751C8.90137 15.751 8.80372 15.7316 8.71261 15.6938C8.6215 15.6561 8.53872 15.6008 8.46899 15.531C8.39925 15.4613 8.34394 15.3785 8.3062 15.2874C8.26846 15.1963 8.24904 15.0986 8.24904 15C8.24904 14.9014 8.26846 14.8038 8.3062 14.7127C8.34394 14.6215 8.39925 14.5388 8.46899 14.469L20.469 2.46903C20.5387 2.39918 20.6214 2.34377 20.7125 2.30596C20.8037 2.26815 20.9013 2.24869 21 2.24869C21.0986 2.24869 21.1963 2.26815 21.2874 2.30596C21.3786 2.34377 21.4613 2.39918 21.531 2.46903Z" fill="white"/>
</svg>
